<?xml version="1.0" encoding="UTF-8"?>
<svg xmlns="http://www.w3.org/2000/svg" xmlns:xlink="http://www.w3.org/1999/xlink" width="1920" height="1080" viewBox="0 0 1920 1080">
<defs>
<g>
<g id="glyph-0-0">
<path d="M 0.515625 -3.328125 L 0.515625 -3.515625 C 0.984375 -3.515625 1.335938 -3.632812 1.578125 -3.875 C 1.640625 -3.875 1.675781 -3.863281 1.6875 -3.84375 C 1.707031 -3.832031 1.71875 -3.796875 1.71875 -3.734375 L 1.71875 -0.453125 C 1.71875 -0.335938 1.742188 -0.265625 1.796875 -0.234375 C 1.847656 -0.203125 2 -0.1875 2.25 -0.1875 L 2.4375 -0.1875 L 2.4375 0 C 2.300781 -0.0078125 1.984375 -0.015625 1.484375 -0.015625 C 0.992188 -0.015625 0.679688 -0.0078125 0.546875 0 L 0.546875 -0.1875 L 0.734375 -0.1875 C 0.984375 -0.1875 1.132812 -0.203125 1.1875 -0.234375 C 1.25 -0.265625 1.28125 -0.335938 1.28125 -0.453125 L 1.28125 -3.484375 C 1.082031 -3.378906 0.828125 -3.328125 0.515625 -3.328125 Z "/>
</g>
<g id="glyph-0-1">
<path d="M 0.296875 0 C 0.296875 -0.0703125 0.296875 -0.117188 0.296875 -0.140625 C 0.304688 -0.160156 0.328125 -0.1875 0.359375 -0.21875 L 1.46875 -1.46875 C 1.882812 -1.925781 2.09375 -2.351562 2.09375 -2.75 C 2.09375 -3.007812 2.019531 -3.234375 1.875 -3.421875 C 1.738281 -3.609375 1.550781 -3.703125 1.3125 -3.703125 C 1.132812 -3.703125 0.972656 -3.648438 0.828125 -3.546875 C 0.691406 -3.441406 0.585938 -3.296875 0.515625 -3.109375 C 0.523438 -3.109375 0.550781 -3.109375 0.59375 -3.109375 C 0.6875 -3.109375 0.757812 -3.078125 0.8125 -3.015625 C 0.875 -2.960938 0.90625 -2.894531 0.90625 -2.8125 C 0.90625 -2.707031 0.867188 -2.628906 0.796875 -2.578125 C 0.734375 -2.523438 0.664062 -2.5 0.59375 -2.5 C 0.570312 -2.5 0.539062 -2.5 0.5 -2.5 C 0.46875 -2.507812 0.425781 -2.539062 0.375 -2.59375 C 0.320312 -2.65625 0.296875 -2.734375 0.296875 -2.828125 C 0.296875 -3.097656 0.394531 -3.335938 0.59375 -3.546875 C 0.800781 -3.765625 1.0625 -3.875 1.375 -3.875 C 1.738281 -3.875 2.035156 -3.769531 2.265625 -3.5625 C 2.492188 -3.351562 2.609375 -3.082031 2.609375 -2.75 C 2.609375 -2.632812 2.59375 -2.523438 2.5625 -2.421875 C 2.53125 -2.316406 2.488281 -2.222656 2.4375 -2.140625 C 2.394531 -2.054688 2.3125 -1.945312 2.1875 -1.8125 C 2.0625 -1.6875 1.945312 -1.578125 1.84375 -1.484375 C 1.75 -1.390625 1.585938 -1.242188 1.359375 -1.046875 L 0.734375 -0.453125 L 1.796875 -0.453125 C 2.128906 -0.453125 2.3125 -0.46875 2.34375 -0.5 C 2.382812 -0.550781 2.425781 -0.722656 2.46875 -1.015625 L 2.609375 -1.015625 L 2.453125 0 Z "/>
</g>
<g id="glyph-0-2">
<path d="M 0.328125 1.375 C 0.328125 1.351562 0.335938 1.320312 0.359375 1.28125 L 2.40625 -4.21875 C 2.40625 -4.21875 2.410156 -4.226562 2.421875 -4.25 C 2.429688 -4.269531 2.4375 -4.285156 2.4375 -4.296875 C 2.445312 -4.316406 2.457031 -4.332031 2.46875 -4.34375 C 2.488281 -4.351562 2.503906 -4.359375 2.515625 -4.359375 C 2.554688 -4.359375 2.578125 -4.335938 2.578125 -4.296875 C 2.578125 -4.285156 2.570312 -4.257812 2.5625 -4.21875 L 0.5 1.28125 C 0.46875 1.351562 0.445312 1.398438 0.4375 1.421875 C 0.425781 1.441406 0.410156 1.453125 0.390625 1.453125 C 0.347656 1.453125 0.328125 1.425781 0.328125 1.375 Z "/>
</g>
<g id="glyph-0-3">
<path d="M 0.15625 -0.96875 L 0.15625 -1.140625 L 1.953125 -3.875 C 1.984375 -3.925781 2.019531 -3.953125 2.0625 -3.953125 C 2.113281 -3.953125 2.140625 -3.941406 2.140625 -3.921875 C 2.148438 -3.898438 2.15625 -3.859375 2.15625 -3.796875 L 2.15625 -1.140625 L 2.75 -1.140625 L 2.75 -0.96875 L 2.15625 -0.96875 L 2.15625 -0.453125 C 2.15625 -0.335938 2.175781 -0.265625 2.21875 -0.234375 C 2.269531 -0.203125 2.398438 -0.1875 2.609375 -0.1875 L 2.734375 -0.1875 L 2.734375 0 C 2.566406 -0.0078125 2.300781 -0.015625 1.9375 -0.015625 C 1.570312 -0.015625 1.304688 -0.0078125 1.140625 0 L 1.140625 -0.1875 L 1.265625 -0.1875 C 1.472656 -0.1875 1.597656 -0.203125 1.640625 -0.234375 C 1.691406 -0.265625 1.71875 -0.335938 1.71875 -0.453125 L 1.71875 -0.96875 Z M 0.328125 -1.140625 L 1.75 -1.140625 L 1.75 -3.3125 Z "/>
</g>
<g id="glyph-0-4">
<path d="M 0.25 -0.78125 C 0.25 -0.90625 0.28125 -0.992188 0.34375 -1.046875 C 0.40625 -1.097656 0.484375 -1.125 0.578125 -1.125 C 0.660156 -1.125 0.734375 -1.09375 0.796875 -1.03125 C 0.859375 -0.976562 0.890625 -0.898438 0.890625 -0.796875 C 0.890625 -0.691406 0.851562 -0.609375 0.78125 -0.546875 C 0.707031 -0.484375 0.617188 -0.460938 0.515625 -0.484375 C 0.609375 -0.328125 0.738281 -0.210938 0.90625 -0.140625 C 1.082031 -0.0664062 1.25 -0.03125 1.40625 -0.03125 C 1.570312 -0.03125 1.722656 -0.101562 1.859375 -0.25 C 1.992188 -0.394531 2.0625 -0.644531 2.0625 -1 C 2.0625 -1.300781 2.003906 -1.535156 1.890625 -1.703125 C 1.773438 -1.878906 1.601562 -1.96875 1.375 -1.96875 L 1.109375 -1.96875 C 1.054688 -1.96875 1.019531 -1.96875 1 -1.96875 C 0.976562 -1.976562 0.96875 -2 0.96875 -2.03125 C 0.96875 -2.070312 1 -2.09375 1.0625 -2.09375 C 1.113281 -2.09375 1.1875 -2.097656 1.28125 -2.109375 C 1.507812 -2.117188 1.6875 -2.222656 1.8125 -2.421875 C 1.914062 -2.597656 1.96875 -2.816406 1.96875 -3.078125 C 1.96875 -3.316406 1.910156 -3.484375 1.796875 -3.578125 C 1.679688 -3.679688 1.550781 -3.734375 1.40625 -3.734375 C 1.269531 -3.734375 1.125 -3.703125 0.96875 -3.640625 C 0.820312 -3.585938 0.710938 -3.5 0.640625 -3.375 C 0.878906 -3.375 1 -3.273438 1 -3.078125 C 1 -2.992188 0.96875 -2.921875 0.90625 -2.859375 C 0.851562 -2.804688 0.785156 -2.78125 0.703125 -2.78125 C 0.617188 -2.78125 0.546875 -2.804688 0.484375 -2.859375 C 0.429688 -2.921875 0.40625 -3 0.40625 -3.09375 C 0.40625 -3.3125 0.503906 -3.492188 0.703125 -3.640625 C 0.898438 -3.796875 1.144531 -3.875 1.4375 -3.875 C 1.71875 -3.875 1.960938 -3.796875 2.171875 -3.640625 C 2.390625 -3.492188 2.5 -3.304688 2.5 -3.078125 C 2.5 -2.847656 2.421875 -2.640625 2.265625 -2.453125 C 2.117188 -2.265625 1.925781 -2.128906 1.6875 -2.046875 C 1.988281 -1.992188 2.222656 -1.863281 2.390625 -1.65625 C 2.566406 -1.457031 2.65625 -1.238281 2.65625 -1 C 2.65625 -0.695312 2.535156 -0.429688 2.296875 -0.203125 C 2.066406 0.015625 1.773438 0.125 1.421875 0.125 C 1.097656 0.125 0.820312 0.0390625 0.59375 -0.125 C 0.363281 -0.300781 0.25 -0.519531 0.25 -0.78125 Z "/>
</g>
</g>
</defs>
<g fill="rgb(73.333333%, 73.333333%, 73.333333%)" fill-opacity="1">
<use xlink:href="#glyph-0-0" x="30" y="25.454102"/>
<use xlink:href="#glyph-0-1" x="33" y="25.454102"/>
<use xlink:href="#glyph-0-2" x="36" y="25.454102"/>
<use xlink:href="#glyph-0-3" x="39" y="25.454102"/>
<use xlink:href="#glyph-0-4" x="42" y="25.454102"/>
</g>
</svg>
