<?xml version="1.0" encoding="UTF-8"?>
<svg xmlns="http://www.w3.org/2000/svg" xmlns:xlink="http://www.w3.org/1999/xlink" width="1920" height="1080" viewBox="0 0 1920 1080">
<defs>
<g>
<g id="glyph-0-0">
<path d="M 0.328125 0 L 0.328125 -0.28125 C 0.546875 -0.28125 0.722656 -0.300781 0.859375 -0.34375 C 0.992188 -0.382812 1.082031 -0.441406 1.125 -0.515625 C 1.175781 -0.597656 1.207031 -0.664062 1.21875 -0.71875 C 1.238281 -0.769531 1.25 -0.84375 1.25 -0.9375 L 1.25 -5.375 C 1.25 -5.550781 1.207031 -5.664062 1.125 -5.71875 C 1.050781 -5.769531 0.859375 -5.796875 0.546875 -5.796875 L 0.328125 -5.796875 L 0.328125 -6.078125 L 1.828125 -6.078125 C 1.929688 -6.078125 2 -6.066406 2.03125 -6.046875 C 2.0625 -6.023438 2.097656 -5.96875 2.140625 -5.875 L 4.078125 -0.890625 L 6.015625 -5.90625 C 6.046875 -5.988281 6.070312 -6.035156 6.09375 -6.046875 C 6.125 -6.066406 6.195312 -6.078125 6.3125 -6.078125 L 7.8125 -6.078125 L 7.8125 -5.796875 L 7.59375 -5.796875 C 7.28125 -5.796875 7.085938 -5.769531 7.015625 -5.71875 C 6.941406 -5.664062 6.90625 -5.550781 6.90625 -5.375 L 6.90625 -0.6875 C 6.90625 -0.519531 6.941406 -0.410156 7.015625 -0.359375 C 7.085938 -0.304688 7.28125 -0.28125 7.59375 -0.28125 L 7.8125 -0.28125 L 7.8125 0 C 7.59375 -0.0195312 7.171875 -0.03125 6.546875 -0.03125 C 5.910156 -0.03125 5.484375 -0.0195312 5.265625 0 L 5.265625 -0.28125 L 5.484375 -0.28125 C 5.796875 -0.28125 5.988281 -0.304688 6.0625 -0.359375 C 6.132812 -0.410156 6.171875 -0.519531 6.171875 -0.6875 L 6.171875 -5.796875 L 3.984375 -0.171875 C 3.941406 -0.0546875 3.890625 0 3.828125 0 C 3.753906 0 3.691406 -0.0664062 3.640625 -0.203125 L 1.5 -5.71875 L 1.5 -0.9375 C 1.5 -0.84375 1.503906 -0.769531 1.515625 -0.71875 C 1.523438 -0.664062 1.554688 -0.597656 1.609375 -0.515625 C 1.660156 -0.441406 1.753906 -0.382812 1.890625 -0.34375 C 2.023438 -0.300781 2.195312 -0.28125 2.40625 -0.28125 L 2.40625 0 C 1.78125 -0.0195312 1.429688 -0.03125 1.359375 -0.03125 C 1.296875 -0.03125 0.953125 -0.0195312 0.328125 0 Z "/>
</g>
<g id="glyph-0-1">
<path d="M 0.828125 -0.484375 C 0.441406 -0.867188 0.25 -1.34375 0.25 -1.90625 C 0.25 -2.46875 0.4375 -2.953125 0.8125 -3.359375 C 1.195312 -3.773438 1.664062 -3.984375 2.21875 -3.984375 C 2.757812 -3.984375 3.222656 -3.773438 3.609375 -3.359375 C 3.992188 -2.953125 4.1875 -2.46875 4.1875 -1.90625 C 4.1875 -1.34375 3.988281 -0.867188 3.59375 -0.484375 C 3.207031 -0.0976562 2.75 0.09375 2.21875 0.09375 C 1.6875 0.09375 1.222656 -0.0976562 0.828125 -0.484375 Z M 0.984375 -1.96875 C 0.984375 -1.394531 1.054688 -0.976562 1.203125 -0.71875 C 1.441406 -0.320312 1.78125 -0.125 2.21875 -0.125 C 2.4375 -0.125 2.640625 -0.179688 2.828125 -0.296875 C 3.015625 -0.421875 3.15625 -0.582031 3.25 -0.78125 C 3.382812 -1.039062 3.453125 -1.4375 3.453125 -1.96875 C 3.453125 -2.539062 3.375 -2.953125 3.21875 -3.203125 C 2.988281 -3.585938 2.65625 -3.78125 2.21875 -3.78125 C 2.019531 -3.78125 1.828125 -3.726562 1.640625 -3.625 C 1.460938 -3.53125 1.316406 -3.382812 1.203125 -3.1875 C 1.054688 -2.925781 0.984375 -2.519531 0.984375 -1.96875 Z "/>
</g>
<g id="glyph-0-2">
<path d="M 0.28125 0 L 0.28125 -0.28125 C 0.59375 -0.28125 0.785156 -0.296875 0.859375 -0.328125 C 0.941406 -0.367188 0.984375 -0.484375 0.984375 -0.671875 L 0.984375 -3.0625 C 0.984375 -3.28125 0.941406 -3.414062 0.859375 -3.46875 C 0.785156 -3.53125 0.59375 -3.5625 0.28125 -3.5625 L 0.28125 -3.828125 L 1.53125 -3.921875 L 1.53125 -3 C 1.8125 -3.613281 2.253906 -3.921875 2.859375 -3.921875 C 3.296875 -3.921875 3.601562 -3.8125 3.78125 -3.59375 C 3.914062 -3.445312 3.992188 -3.289062 4.015625 -3.125 C 4.046875 -2.957031 4.0625 -2.660156 4.0625 -2.234375 L 4.0625 -0.546875 C 4.070312 -0.421875 4.125 -0.34375 4.21875 -0.3125 C 4.3125 -0.289062 4.488281 -0.28125 4.75 -0.28125 L 4.75 0 C 4.144531 -0.0195312 3.816406 -0.03125 3.765625 -0.03125 C 3.710938 -0.03125 3.375 -0.0195312 2.75 0 L 2.75 -0.28125 C 3.070312 -0.28125 3.269531 -0.296875 3.34375 -0.328125 C 3.414062 -0.367188 3.453125 -0.484375 3.453125 -0.671875 L 3.453125 -2.75 C 3.453125 -3.050781 3.40625 -3.289062 3.3125 -3.46875 C 3.21875 -3.644531 3.046875 -3.734375 2.796875 -3.734375 C 2.484375 -3.734375 2.203125 -3.601562 1.953125 -3.34375 C 1.710938 -3.082031 1.59375 -2.738281 1.59375 -2.3125 L 1.59375 -0.671875 C 1.59375 -0.484375 1.628906 -0.367188 1.703125 -0.328125 C 1.773438 -0.296875 1.96875 -0.28125 2.28125 -0.28125 L 2.28125 0 C 1.675781 -0.0195312 1.347656 -0.03125 1.296875 -0.03125 C 1.242188 -0.03125 0.90625 -0.0195312 0.28125 0 Z "/>
</g>
<g id="glyph-0-3">
<path d="M 0.25 -1.953125 C 0.25 -2.515625 0.425781 -2.992188 0.78125 -3.390625 C 1.144531 -3.785156 1.582031 -3.984375 2.09375 -3.984375 C 2.613281 -3.984375 3.007812 -3.8125 3.28125 -3.46875 C 3.550781 -3.132812 3.6875 -2.722656 3.6875 -2.234375 C 3.6875 -2.148438 3.675781 -2.097656 3.65625 -2.078125 C 3.632812 -2.054688 3.570312 -2.046875 3.46875 -2.046875 L 0.984375 -2.046875 C 0.984375 -1.441406 1.070312 -1 1.25 -0.71875 C 1.5 -0.320312 1.835938 -0.125 2.265625 -0.125 C 2.316406 -0.125 2.375 -0.128906 2.4375 -0.140625 C 2.507812 -0.148438 2.617188 -0.179688 2.765625 -0.234375 C 2.910156 -0.285156 3.046875 -0.378906 3.171875 -0.515625 C 3.296875 -0.648438 3.390625 -0.828125 3.453125 -1.046875 C 3.472656 -1.128906 3.515625 -1.171875 3.578125 -1.171875 C 3.648438 -1.171875 3.6875 -1.132812 3.6875 -1.0625 C 3.6875 -1.007812 3.65625 -0.921875 3.59375 -0.796875 C 3.539062 -0.679688 3.460938 -0.554688 3.359375 -0.421875 C 3.253906 -0.285156 3.097656 -0.164062 2.890625 -0.0625 C 2.679688 0.0390625 2.453125 0.09375 2.203125 0.09375 C 1.679688 0.09375 1.222656 -0.0976562 0.828125 -0.484375 C 0.441406 -0.878906 0.25 -1.367188 0.25 -1.953125 Z M 1 -2.234375 L 3.109375 -2.234375 C 3.109375 -2.359375 3.097656 -2.488281 3.078125 -2.625 C 3.054688 -2.769531 3.015625 -2.9375 2.953125 -3.125 C 2.890625 -3.320312 2.785156 -3.476562 2.640625 -3.59375 C 2.492188 -3.71875 2.3125 -3.78125 2.09375 -3.78125 C 2 -3.78125 1.898438 -3.757812 1.796875 -3.71875 C 1.691406 -3.675781 1.578125 -3.609375 1.453125 -3.515625 C 1.328125 -3.421875 1.222656 -3.257812 1.140625 -3.03125 C 1.054688 -2.8125 1.007812 -2.546875 1 -2.234375 Z "/>
</g>
<g id="glyph-0-4">
<path d="M 0.171875 1.109375 C 0.171875 0.984375 0.207031 0.882812 0.28125 0.8125 C 0.351562 0.75 0.441406 0.71875 0.546875 0.71875 C 0.648438 0.71875 0.738281 0.75 0.8125 0.8125 C 0.882812 0.882812 0.921875 0.976562 0.921875 1.09375 C 0.921875 1.3125 0.800781 1.4375 0.5625 1.46875 C 0.675781 1.570312 0.816406 1.625 0.984375 1.625 C 1.160156 1.625 1.320312 1.554688 1.46875 1.421875 C 1.613281 1.296875 1.710938 1.171875 1.765625 1.046875 C 1.828125 0.921875 1.90625 0.75 2 0.53125 C 2.082031 0.351562 2.15625 0.175781 2.21875 0 L 0.890625 -3.25 C 0.828125 -3.382812 0.75 -3.46875 0.65625 -3.5 C 0.570312 -3.539062 0.410156 -3.5625 0.171875 -3.5625 L 0.171875 -3.828125 C 0.429688 -3.816406 0.71875 -3.8125 1.03125 -3.8125 C 1.21875 -3.8125 1.539062 -3.816406 2 -3.828125 L 2 -3.5625 C 1.664062 -3.5625 1.5 -3.484375 1.5 -3.328125 C 1.5 -3.304688 1.519531 -3.253906 1.5625 -3.171875 L 2.546875 -0.78125 L 3.4375 -2.953125 C 3.476562 -3.035156 3.5 -3.109375 3.5 -3.171875 C 3.5 -3.410156 3.359375 -3.539062 3.078125 -3.5625 L 3.078125 -3.828125 C 3.460938 -3.816406 3.71875 -3.8125 3.84375 -3.8125 C 4.09375 -3.8125 4.316406 -3.816406 4.515625 -3.828125 L 4.515625 -3.5625 C 4.117188 -3.5625 3.84375 -3.367188 3.6875 -2.984375 L 2.125 0.8125 C 1.84375 1.488281 1.460938 1.828125 0.984375 1.828125 C 0.765625 1.828125 0.570312 1.753906 0.40625 1.609375 C 0.25 1.472656 0.171875 1.304688 0.171875 1.109375 Z "/>
</g>
<g id="glyph-0-5">
</g>
<g id="glyph-0-6">
<path d="M 0.28125 -3.5625 L 0.28125 -3.828125 L 1.59375 -3.921875 L 1.59375 -0.984375 C 1.59375 -0.835938 1.597656 -0.722656 1.609375 -0.640625 C 1.617188 -0.554688 1.644531 -0.46875 1.6875 -0.375 C 1.738281 -0.28125 1.820312 -0.207031 1.9375 -0.15625 C 2.050781 -0.113281 2.195312 -0.09375 2.375 -0.09375 C 2.695312 -0.09375 2.957031 -0.222656 3.15625 -0.484375 C 3.351562 -0.753906 3.453125 -1.082031 3.453125 -1.46875 L 3.453125 -3.0625 C 3.453125 -3.28125 3.410156 -3.414062 3.328125 -3.46875 C 3.253906 -3.53125 3.0625 -3.5625 2.75 -3.5625 L 2.75 -3.828125 L 4.0625 -3.921875 L 4.0625 -0.78125 C 4.0625 -0.550781 4.097656 -0.410156 4.171875 -0.359375 C 4.253906 -0.304688 4.445312 -0.28125 4.75 -0.28125 L 4.75 0 L 3.46875 0.09375 L 3.46875 -0.703125 C 3.226562 -0.171875 2.847656 0.09375 2.328125 0.09375 C 2.066406 0.09375 1.847656 0.0625 1.671875 0 C 1.492188 -0.0625 1.359375 -0.132812 1.265625 -0.21875 C 1.179688 -0.300781 1.113281 -0.421875 1.0625 -0.578125 C 1.019531 -0.742188 0.992188 -0.875 0.984375 -0.96875 C 0.984375 -1.070312 0.984375 -1.21875 0.984375 -1.40625 L 0.984375 -2.734375 C 0.984375 -3.140625 0.953125 -3.378906 0.890625 -3.453125 C 0.828125 -3.523438 0.625 -3.5625 0.28125 -3.5625 Z "/>
</g>
<g id="glyph-0-7">
<path d="M 0.859375 -0.484375 C 0.484375 -0.878906 0.296875 -1.359375 0.296875 -1.921875 C 0.296875 -2.484375 0.476562 -2.96875 0.84375 -3.375 C 1.21875 -3.78125 1.679688 -3.984375 2.234375 -3.984375 C 2.597656 -3.984375 2.914062 -3.894531 3.1875 -3.71875 C 3.457031 -3.550781 3.59375 -3.320312 3.59375 -3.03125 C 3.59375 -2.90625 3.550781 -2.800781 3.46875 -2.71875 C 3.394531 -2.644531 3.300781 -2.609375 3.1875 -2.609375 C 3.0625 -2.609375 2.960938 -2.644531 2.890625 -2.71875 C 2.816406 -2.800781 2.78125 -2.898438 2.78125 -3.015625 C 2.78125 -3.078125 2.785156 -3.128906 2.796875 -3.171875 C 2.816406 -3.222656 2.859375 -3.273438 2.921875 -3.328125 C 2.984375 -3.390625 3.070312 -3.425781 3.1875 -3.4375 C 2.976562 -3.65625 2.660156 -3.765625 2.234375 -3.765625 C 1.929688 -3.765625 1.65625 -3.617188 1.40625 -3.328125 C 1.164062 -3.046875 1.046875 -2.582031 1.046875 -1.9375 C 1.046875 -1.601562 1.085938 -1.3125 1.171875 -1.0625 C 1.253906 -0.8125 1.363281 -0.617188 1.5 -0.484375 C 1.632812 -0.359375 1.765625 -0.265625 1.890625 -0.203125 C 2.023438 -0.148438 2.160156 -0.125 2.296875 -0.125 C 2.878906 -0.125 3.265625 -0.4375 3.453125 -1.0625 C 3.472656 -1.113281 3.515625 -1.140625 3.578125 -1.140625 C 3.648438 -1.140625 3.6875 -1.113281 3.6875 -1.0625 C 3.6875 -1.03125 3.675781 -0.976562 3.65625 -0.90625 C 3.632812 -0.832031 3.585938 -0.734375 3.515625 -0.609375 C 3.441406 -0.492188 3.351562 -0.382812 3.25 -0.28125 C 3.144531 -0.175781 3 -0.0859375 2.8125 -0.015625 C 2.632812 0.0546875 2.4375 0.09375 2.21875 0.09375 C 1.695312 0.09375 1.242188 -0.0976562 0.859375 -0.484375 Z "/>
</g>
<g id="glyph-0-8">
<path d="M 0.375 -0.84375 C 0.375 -1.34375 0.671875 -1.726562 1.265625 -2 C 1.617188 -2.175781 2.160156 -2.285156 2.890625 -2.328125 L 2.890625 -2.65625 C 2.890625 -3.019531 2.796875 -3.296875 2.609375 -3.484375 C 2.421875 -3.679688 2.203125 -3.78125 1.953125 -3.78125 C 1.523438 -3.78125 1.207031 -3.644531 1 -3.375 C 1.175781 -3.375 1.296875 -3.328125 1.359375 -3.234375 C 1.421875 -3.148438 1.453125 -3.0625 1.453125 -2.96875 C 1.453125 -2.851562 1.414062 -2.753906 1.34375 -2.671875 C 1.269531 -2.597656 1.171875 -2.5625 1.046875 -2.5625 C 0.921875 -2.5625 0.816406 -2.597656 0.734375 -2.671875 C 0.660156 -2.742188 0.625 -2.847656 0.625 -2.984375 C 0.625 -3.265625 0.753906 -3.5 1.015625 -3.6875 C 1.273438 -3.882812 1.59375 -3.984375 1.96875 -3.984375 C 2.457031 -3.984375 2.863281 -3.820312 3.1875 -3.5 C 3.289062 -3.394531 3.367188 -3.273438 3.421875 -3.140625 C 3.472656 -3.015625 3.5 -2.90625 3.5 -2.8125 C 3.507812 -2.726562 3.515625 -2.601562 3.515625 -2.4375 L 3.515625 -0.671875 C 3.515625 -0.628906 3.519531 -0.578125 3.53125 -0.515625 C 3.539062 -0.460938 3.570312 -0.398438 3.625 -0.328125 C 3.675781 -0.253906 3.75 -0.21875 3.84375 -0.21875 C 4.050781 -0.21875 4.15625 -0.410156 4.15625 -0.796875 L 4.15625 -1.296875 L 4.390625 -1.296875 L 4.390625 -0.796875 C 4.390625 -0.472656 4.304688 -0.25 4.140625 -0.125 C 3.972656 -0.0078125 3.8125 0.046875 3.65625 0.046875 C 3.457031 0.046875 3.296875 -0.0195312 3.171875 -0.15625 C 3.046875 -0.300781 2.972656 -0.472656 2.953125 -0.671875 C 2.867188 -0.453125 2.722656 -0.269531 2.515625 -0.125 C 2.316406 0.0195312 2.078125 0.09375 1.796875 0.09375 C 1.578125 0.09375 1.367188 0.0664062 1.171875 0.015625 C 0.972656 -0.0351562 0.789062 -0.132812 0.625 -0.28125 C 0.457031 -0.425781 0.375 -0.613281 0.375 -0.84375 Z M 1.0625 -0.859375 C 1.0625 -0.640625 1.140625 -0.457031 1.296875 -0.3125 C 1.453125 -0.164062 1.640625 -0.09375 1.859375 -0.09375 C 2.109375 -0.09375 2.34375 -0.1875 2.5625 -0.375 C 2.78125 -0.570312 2.890625 -0.863281 2.890625 -1.25 L 2.890625 -2.140625 C 2.234375 -2.109375 1.765625 -1.960938 1.484375 -1.703125 C 1.203125 -1.441406 1.0625 -1.160156 1.0625 -0.859375 Z "/>
</g>
<g id="glyph-0-9">
<path d="M 0.171875 -3.5625 L 0.171875 -3.75 C 0.441406 -3.757812 0.664062 -3.859375 0.84375 -4.046875 C 1.03125 -4.242188 1.15625 -4.460938 1.21875 -4.703125 C 1.28125 -4.941406 1.3125 -5.195312 1.3125 -5.46875 L 1.53125 -5.46875 L 1.53125 -3.828125 L 2.8125 -3.828125 L 2.8125 -3.5625 L 1.53125 -3.5625 L 1.53125 -1.078125 C 1.53125 -0.441406 1.734375 -0.125 2.140625 -0.125 C 2.304688 -0.125 2.445312 -0.210938 2.5625 -0.390625 C 2.675781 -0.566406 2.734375 -0.8125 2.734375 -1.125 L 2.734375 -1.609375 L 2.953125 -1.609375 L 2.953125 -1.109375 C 2.953125 -0.785156 2.875 -0.503906 2.71875 -0.265625 C 2.570312 -0.0234375 2.359375 0.09375 2.078125 0.09375 C 1.960938 0.09375 1.851562 0.078125 1.75 0.046875 C 1.644531 0.0234375 1.523438 -0.0195312 1.390625 -0.09375 C 1.253906 -0.164062 1.140625 -0.285156 1.046875 -0.453125 C 0.960938 -0.628906 0.921875 -0.847656 0.921875 -1.109375 L 0.921875 -3.5625 Z "/>
</g>
<g id="glyph-0-10">
<path d="M 0.25 0.703125 C 0.25 0.515625 0.320312 0.335938 0.46875 0.171875 C 0.613281 0.00390625 0.8125 -0.113281 1.0625 -0.1875 C 0.800781 -0.351562 0.671875 -0.617188 0.671875 -0.984375 C 0.671875 -1.253906 0.765625 -1.5 0.953125 -1.71875 C 0.671875 -1.945312 0.53125 -2.25 0.53125 -2.625 C 0.53125 -2.976562 0.671875 -3.28125 0.953125 -3.53125 C 1.234375 -3.789062 1.570312 -3.921875 1.96875 -3.921875 C 2.320312 -3.921875 2.640625 -3.816406 2.921875 -3.609375 C 3.203125 -3.890625 3.515625 -4.03125 3.859375 -4.03125 C 4.015625 -4.03125 4.128906 -3.984375 4.203125 -3.890625 C 4.273438 -3.796875 4.3125 -3.695312 4.3125 -3.59375 C 4.3125 -3.5 4.28125 -3.429688 4.21875 -3.390625 C 4.164062 -3.347656 4.109375 -3.328125 4.046875 -3.328125 C 3.984375 -3.328125 3.925781 -3.347656 3.875 -3.390625 C 3.820312 -3.441406 3.796875 -3.503906 3.796875 -3.578125 C 3.796875 -3.703125 3.84375 -3.785156 3.9375 -3.828125 C 3.914062 -3.828125 3.882812 -3.828125 3.84375 -3.828125 C 3.550781 -3.828125 3.285156 -3.710938 3.046875 -3.484375 C 3.285156 -3.253906 3.40625 -2.960938 3.40625 -2.609375 C 3.40625 -2.265625 3.265625 -1.960938 2.984375 -1.703125 C 2.710938 -1.453125 2.375 -1.328125 1.96875 -1.328125 C 1.632812 -1.328125 1.34375 -1.414062 1.09375 -1.59375 C 0.988281 -1.476562 0.9375 -1.34375 0.9375 -1.1875 C 0.9375 -1.03125 0.976562 -0.894531 1.0625 -0.78125 C 1.15625 -0.664062 1.269531 -0.601562 1.40625 -0.59375 C 1.445312 -0.582031 1.671875 -0.578125 2.078125 -0.578125 C 2.316406 -0.578125 2.5 -0.570312 2.625 -0.5625 C 2.757812 -0.5625 2.921875 -0.539062 3.109375 -0.5 C 3.296875 -0.457031 3.460938 -0.398438 3.609375 -0.328125 C 3.992188 -0.117188 4.1875 0.21875 4.1875 0.6875 C 4.1875 1.019531 3.988281 1.289062 3.59375 1.5 C 3.207031 1.71875 2.75 1.828125 2.21875 1.828125 C 1.664062 1.828125 1.195312 1.71875 0.8125 1.5 C 0.4375 1.289062 0.25 1.023438 0.25 0.703125 Z M 0.71875 0.703125 C 0.71875 0.941406 0.859375 1.15625 1.140625 1.34375 C 1.429688 1.53125 1.789062 1.625 2.21875 1.625 C 2.644531 1.625 3 1.53125 3.28125 1.34375 C 3.570312 1.164062 3.71875 0.953125 3.71875 0.703125 C 3.71875 0.523438 3.664062 0.378906 3.5625 0.265625 C 3.46875 0.148438 3.316406 0.0703125 3.109375 0.03125 C 2.898438 -0.0078125 2.722656 -0.0351562 2.578125 -0.046875 C 2.429688 -0.0546875 2.226562 -0.0625 1.96875 -0.0625 L 1.4375 -0.0625 C 1.238281 -0.0507812 1.066406 0.0234375 0.921875 0.171875 C 0.785156 0.328125 0.71875 0.503906 0.71875 0.703125 Z M 1.203125 -2.625 C 1.203125 -1.894531 1.457031 -1.53125 1.96875 -1.53125 C 2.226562 -1.53125 2.441406 -1.648438 2.609375 -1.890625 C 2.703125 -2.046875 2.75 -2.289062 2.75 -2.625 C 2.75 -3.351562 2.488281 -3.71875 1.96875 -3.71875 C 1.707031 -3.71875 1.5 -3.601562 1.34375 -3.375 C 1.25 -3.207031 1.203125 -2.957031 1.203125 -2.625 Z "/>
</g>
<g id="glyph-0-11">
<path d="M 0.25 -5.796875 L 0.25 -6.078125 L 1.53125 -6.171875 L 1.53125 -3.359375 C 1.875 -3.734375 2.28125 -3.921875 2.75 -3.921875 C 3.257812 -3.921875 3.695312 -3.722656 4.0625 -3.328125 C 4.4375 -2.941406 4.625 -2.472656 4.625 -1.921875 C 4.625 -1.359375 4.425781 -0.878906 4.03125 -0.484375 C 3.644531 -0.0976562 3.1875 0.09375 2.65625 0.09375 C 2.15625 0.09375 1.765625 -0.117188 1.484375 -0.546875 C 1.273438 -0.191406 1.171875 -0.0078125 1.171875 0 L 0.9375 0 L 0.9375 -5.296875 C 0.9375 -5.515625 0.898438 -5.648438 0.828125 -5.703125 C 0.753906 -5.765625 0.5625 -5.796875 0.25 -5.796875 Z M 1.5625 -1.015625 C 1.5625 -0.890625 1.601562 -0.765625 1.6875 -0.640625 C 1.914062 -0.273438 2.222656 -0.09375 2.609375 -0.09375 C 3.023438 -0.09375 3.363281 -0.285156 3.625 -0.671875 C 3.800781 -0.953125 3.890625 -1.367188 3.890625 -1.921875 C 3.890625 -2.472656 3.804688 -2.890625 3.640625 -3.171875 C 3.398438 -3.546875 3.085938 -3.734375 2.703125 -3.734375 C 2.265625 -3.734375 1.914062 -3.546875 1.65625 -3.171875 C 1.59375 -3.066406 1.5625 -2.957031 1.5625 -2.84375 Z "/>
</g>
<g id="glyph-0-12">
<path d="M 0.25 0 L 0.25 -0.28125 C 0.5625 -0.28125 0.753906 -0.296875 0.828125 -0.328125 C 0.898438 -0.367188 0.9375 -0.484375 0.9375 -0.671875 L 0.9375 -5.296875 C 0.9375 -5.515625 0.898438 -5.648438 0.828125 -5.703125 C 0.753906 -5.765625 0.5625 -5.796875 0.25 -5.796875 L 0.25 -6.078125 L 1.53125 -6.171875 L 1.53125 -1.90625 L 2.78125 -2.984375 C 2.914062 -3.097656 2.984375 -3.210938 2.984375 -3.328125 C 2.984375 -3.460938 2.894531 -3.539062 2.71875 -3.5625 L 2.71875 -3.828125 C 2.96875 -3.816406 3.300781 -3.8125 3.71875 -3.8125 C 3.957031 -3.8125 4.164062 -3.816406 4.34375 -3.828125 L 4.34375 -3.5625 C 3.96875 -3.539062 3.59375 -3.378906 3.21875 -3.078125 C 3.132812 -3.015625 2.992188 -2.894531 2.796875 -2.71875 C 2.597656 -2.550781 2.5 -2.457031 2.5 -2.4375 C 2.5 -2.425781 2.5 -2.410156 2.5 -2.390625 C 2.507812 -2.378906 2.519531 -2.367188 2.53125 -2.359375 C 2.539062 -2.347656 2.546875 -2.34375 2.546875 -2.34375 L 3.6875 -0.75 C 3.832031 -0.53125 3.960938 -0.394531 4.078125 -0.34375 C 4.191406 -0.300781 4.347656 -0.28125 4.546875 -0.28125 L 4.546875 0 C 4.285156 -0.0195312 4.023438 -0.03125 3.765625 -0.03125 C 3.628906 -0.03125 3.3125 -0.0195312 2.8125 0 L 2.8125 -0.28125 C 3.019531 -0.28125 3.125 -0.347656 3.125 -0.484375 C 3.125 -0.578125 2.882812 -0.957031 2.40625 -1.625 C 2.375 -1.664062 2.316406 -1.738281 2.234375 -1.84375 C 2.171875 -1.945312 2.117188 -2.023438 2.078125 -2.078125 L 1.5 -1.59375 L 1.5 -0.671875 C 1.5 -0.484375 1.535156 -0.367188 1.609375 -0.328125 C 1.679688 -0.296875 1.878906 -0.28125 2.203125 -0.28125 L 2.203125 0 C 1.835938 -0.0195312 1.507812 -0.03125 1.21875 -0.03125 C 1.15625 -0.03125 0.832031 -0.0195312 0.25 0 Z "/>
</g>
<g id="glyph-0-13">
<path d="M 0.875 -0.140625 C 0.789062 -0.234375 0.75 -0.34375 0.75 -0.46875 C 0.75 -0.59375 0.789062 -0.703125 0.875 -0.796875 C 0.96875 -0.890625 1.085938 -0.9375 1.234375 -0.9375 C 1.359375 -0.9375 1.460938 -0.890625 1.546875 -0.796875 C 1.640625 -0.710938 1.6875 -0.601562 1.6875 -0.46875 C 1.6875 -0.332031 1.640625 -0.21875 1.546875 -0.125 C 1.453125 -0.0390625 1.347656 0 1.234375 0 C 1.085938 0 0.96875 -0.046875 0.875 -0.140625 Z "/>
</g>
</g>
</defs>
<g fill="rgb(100%, 100%, 100%)" fill-opacity="1">
<use xlink:href="#glyph-0-0" x="30" y="28.311523"/>
<use xlink:href="#glyph-0-1" x="38" y="28.311523"/>
<use xlink:href="#glyph-0-2" x="42" y="28.311523"/>
<use xlink:href="#glyph-0-3" x="47" y="28.311523"/>
<use xlink:href="#glyph-0-4" x="51" y="28.311523"/>
<use xlink:href="#glyph-0-5" x="56" y="28.311523"/>
<use xlink:href="#glyph-0-4" x="59" y="28.311523"/>
<use xlink:href="#glyph-0-1" x="63" y="28.311523"/>
<use xlink:href="#glyph-0-6" x="67" y="28.311523"/>
<use xlink:href="#glyph-0-5" x="72" y="28.311523"/>
<use xlink:href="#glyph-0-7" x="75" y="28.311523"/>
<use xlink:href="#glyph-0-8" x="79" y="28.311523"/>
<use xlink:href="#glyph-0-2" x="83" y="28.311523"/>
<use xlink:href="#glyph-0-2" x="88" y="28.311523"/>
<use xlink:href="#glyph-0-1" x="93" y="28.311523"/>
<use xlink:href="#glyph-0-9" x="97" y="28.311523"/>
<use xlink:href="#glyph-0-5" x="100" y="28.311523"/>
<use xlink:href="#glyph-0-10" x="103" y="28.311523"/>
<use xlink:href="#glyph-0-3" x="107" y="28.311523"/>
<use xlink:href="#glyph-0-9" x="111" y="28.311523"/>
<use xlink:href="#glyph-0-5" x="114" y="28.311523"/>
<use xlink:href="#glyph-0-11" x="117" y="28.311523"/>
<use xlink:href="#glyph-0-8" x="122" y="28.311523"/>
<use xlink:href="#glyph-0-7" x="126" y="28.311523"/>
<use xlink:href="#glyph-0-12" x="130" y="28.311523"/>
<use xlink:href="#glyph-0-13" x="135" y="28.311523"/>
</g>
</svg>
