<?xml version="1.0" encoding="UTF-8"?>
<svg xmlns="http://www.w3.org/2000/svg" xmlns:xlink="http://www.w3.org/1999/xlink" width="1920" height="1080" viewBox="0 0 1920 1080">
<defs>
<g>
<g id="glyph-0-0">
<path d="M 0.328125 -0.125 L 0.328125 -1.453125 C 0.328125 -1.523438 0.328125 -1.570312 0.328125 -1.59375 C 0.335938 -1.625 0.351562 -1.648438 0.375 -1.671875 C 0.394531 -1.691406 0.421875 -1.703125 0.453125 -1.703125 C 0.503906 -1.703125 0.535156 -1.691406 0.546875 -1.671875 C 0.566406 -1.648438 0.582031 -1.601562 0.59375 -1.53125 C 0.695312 -1.070312 0.859375 -0.71875 1.078125 -0.46875 C 1.296875 -0.226562 1.597656 -0.109375 1.984375 -0.109375 C 2.359375 -0.109375 2.640625 -0.191406 2.828125 -0.359375 C 3.023438 -0.523438 3.125 -0.742188 3.125 -1.015625 C 3.125 -1.503906 2.773438 -1.8125 2.078125 -1.9375 C 1.679688 -2.019531 1.398438 -2.085938 1.234375 -2.140625 C 1.066406 -2.191406 0.910156 -2.28125 0.765625 -2.40625 C 0.472656 -2.632812 0.328125 -2.914062 0.328125 -3.25 C 0.328125 -3.582031 0.453125 -3.867188 0.703125 -4.109375 C 0.960938 -4.359375 1.375 -4.484375 1.9375 -4.484375 C 2.300781 -4.484375 2.613281 -4.390625 2.875 -4.203125 C 2.945312 -4.265625 3.003906 -4.316406 3.046875 -4.359375 C 3.128906 -4.441406 3.191406 -4.484375 3.234375 -4.484375 C 3.285156 -4.484375 3.316406 -4.460938 3.328125 -4.421875 C 3.335938 -4.390625 3.34375 -4.328125 3.34375 -4.234375 L 3.34375 -3.234375 C 3.34375 -3.160156 3.34375 -3.109375 3.34375 -3.078125 C 3.34375 -3.054688 3.332031 -3.035156 3.3125 -3.015625 C 3.289062 -2.992188 3.257812 -2.984375 3.21875 -2.984375 C 3.144531 -2.984375 3.101562 -3.015625 3.09375 -3.078125 C 3.039062 -3.890625 2.65625 -4.296875 1.9375 -4.296875 C 1.539062 -4.296875 1.253906 -4.21875 1.078125 -4.0625 C 0.898438 -3.914062 0.8125 -3.738281 0.8125 -3.53125 C 0.8125 -3.414062 0.835938 -3.3125 0.890625 -3.21875 C 0.941406 -3.132812 1.003906 -3.066406 1.078125 -3.015625 C 1.148438 -2.972656 1.25 -2.925781 1.375 -2.875 C 1.5 -2.832031 1.601562 -2.800781 1.6875 -2.78125 C 1.769531 -2.769531 1.890625 -2.742188 2.046875 -2.703125 C 2.578125 -2.609375 2.957031 -2.453125 3.1875 -2.234375 C 3.457031 -1.953125 3.59375 -1.632812 3.59375 -1.28125 C 3.59375 -0.882812 3.457031 -0.550781 3.1875 -0.28125 C 2.925781 -0.0195312 2.523438 0.109375 1.984375 0.109375 C 1.554688 0.109375 1.191406 -0.03125 0.890625 -0.3125 C 0.847656 -0.28125 0.8125 -0.242188 0.78125 -0.203125 C 0.75 -0.171875 0.726562 -0.148438 0.71875 -0.140625 C 0.707031 -0.128906 0.703125 -0.117188 0.703125 -0.109375 C 0.703125 -0.0976562 0.695312 -0.09375 0.6875 -0.09375 C 0.550781 0.0390625 0.46875 0.109375 0.4375 0.109375 C 0.382812 0.109375 0.351562 0.09375 0.34375 0.0625 C 0.332031 0.03125 0.328125 -0.03125 0.328125 -0.125 Z "/>
</g>
<g id="glyph-0-1">
<path d="M 0.3125 -4 L 0.3125 -4.3125 L 1.796875 -4.421875 L 1.796875 -1.09375 C 1.796875 -0.9375 1.800781 -0.8125 1.8125 -0.71875 C 1.820312 -0.625 1.851562 -0.523438 1.90625 -0.421875 C 1.957031 -0.316406 2.046875 -0.238281 2.171875 -0.1875 C 2.304688 -0.132812 2.472656 -0.109375 2.671875 -0.109375 C 3.023438 -0.109375 3.3125 -0.253906 3.53125 -0.546875 C 3.757812 -0.847656 3.875 -1.21875 3.875 -1.65625 L 3.875 -3.4375 C 3.875 -3.6875 3.832031 -3.84375 3.75 -3.90625 C 3.664062 -3.96875 3.445312 -4 3.09375 -4 L 3.09375 -4.3125 L 4.5625 -4.421875 L 4.5625 -0.875 C 4.5625 -0.625 4.601562 -0.46875 4.6875 -0.40625 C 4.78125 -0.34375 5 -0.3125 5.34375 -0.3125 L 5.34375 0 L 3.90625 0.109375 L 3.90625 -0.796875 C 3.625 -0.191406 3.195312 0.109375 2.625 0.109375 C 2.332031 0.109375 2.082031 0.0703125 1.875 0 C 1.675781 -0.0703125 1.523438 -0.15625 1.421875 -0.25 C 1.328125 -0.34375 1.253906 -0.476562 1.203125 -0.65625 C 1.148438 -0.84375 1.117188 -0.988281 1.109375 -1.09375 C 1.097656 -1.207031 1.09375 -1.367188 1.09375 -1.578125 L 1.09375 -3.078125 C 1.09375 -3.535156 1.0625 -3.800781 1 -3.875 C 0.9375 -3.957031 0.707031 -4 0.3125 -4 Z "/>
</g>
<g id="glyph-0-2">
<path d="M 0.3125 0 L 0.3125 -0.3125 C 0.664062 -0.3125 0.882812 -0.332031 0.96875 -0.375 C 1.050781 -0.414062 1.09375 -0.546875 1.09375 -0.765625 L 1.09375 -3.4375 C 1.09375 -3.6875 1.050781 -3.84375 0.96875 -3.90625 C 0.882812 -3.96875 0.664062 -4 0.3125 -4 L 0.3125 -4.3125 L 1.734375 -4.421875 L 1.734375 -3.375 C 2.046875 -4.070312 2.535156 -4.421875 3.203125 -4.421875 C 3.703125 -4.421875 4.054688 -4.296875 4.265625 -4.046875 C 4.410156 -3.878906 4.492188 -3.703125 4.515625 -3.515625 C 4.546875 -3.328125 4.5625 -2.992188 4.5625 -2.515625 L 4.5625 -0.609375 C 4.570312 -0.472656 4.628906 -0.390625 4.734375 -0.359375 C 4.847656 -0.328125 5.050781 -0.3125 5.34375 -0.3125 L 5.34375 0 C 4.664062 -0.0195312 4.296875 -0.03125 4.234375 -0.03125 C 4.179688 -0.03125 3.800781 -0.0195312 3.09375 0 L 3.09375 -0.3125 C 3.445312 -0.3125 3.664062 -0.332031 3.75 -0.375 C 3.832031 -0.414062 3.875 -0.546875 3.875 -0.765625 L 3.875 -3.09375 C 3.875 -3.425781 3.820312 -3.691406 3.71875 -3.890625 C 3.613281 -4.097656 3.421875 -4.203125 3.140625 -4.203125 C 2.796875 -4.203125 2.484375 -4.054688 2.203125 -3.765625 C 1.929688 -3.472656 1.796875 -3.082031 1.796875 -2.59375 L 1.796875 -0.765625 C 1.796875 -0.546875 1.835938 -0.414062 1.921875 -0.375 C 2.003906 -0.332031 2.21875 -0.3125 2.5625 -0.3125 L 2.5625 0 C 1.882812 -0.0195312 1.515625 -0.03125 1.453125 -0.03125 C 1.398438 -0.03125 1.019531 -0.0195312 0.3125 0 Z "/>
</g>
<g id="glyph-0-3">
<path d="M 0.28125 0 L 0.28125 -0.3125 C 0.632812 -0.3125 0.851562 -0.332031 0.9375 -0.375 C 1.019531 -0.414062 1.0625 -0.546875 1.0625 -0.765625 L 1.0625 -5.953125 C 1.0625 -6.203125 1.015625 -6.359375 0.921875 -6.421875 C 0.835938 -6.484375 0.625 -6.515625 0.28125 -6.515625 L 0.28125 -6.828125 L 1.71875 -6.9375 L 1.71875 -2.140625 L 3.125 -3.359375 C 3.269531 -3.484375 3.34375 -3.613281 3.34375 -3.75 C 3.34375 -3.90625 3.25 -3.988281 3.0625 -4 L 3.0625 -4.3125 C 3.34375 -4.289062 3.71875 -4.28125 4.1875 -4.28125 C 4.457031 -4.28125 4.6875 -4.289062 4.875 -4.3125 L 4.875 -4 C 4.457031 -3.976562 4.039062 -3.796875 3.625 -3.453125 C 3.53125 -3.378906 3.367188 -3.242188 3.140625 -3.046875 C 2.921875 -2.859375 2.8125 -2.753906 2.8125 -2.734375 C 2.8125 -2.734375 2.8125 -2.722656 2.8125 -2.703125 C 2.820312 -2.691406 2.832031 -2.675781 2.84375 -2.65625 C 2.863281 -2.644531 2.875 -2.632812 2.875 -2.625 L 4.140625 -0.84375 C 4.316406 -0.601562 4.46875 -0.453125 4.59375 -0.390625 C 4.71875 -0.335938 4.890625 -0.3125 5.109375 -0.3125 L 5.109375 0 C 4.828125 -0.0195312 4.535156 -0.03125 4.234375 -0.03125 C 4.078125 -0.03125 3.71875 -0.0195312 3.15625 0 L 3.15625 -0.3125 C 3.394531 -0.3125 3.515625 -0.390625 3.515625 -0.546875 C 3.515625 -0.648438 3.242188 -1.070312 2.703125 -1.8125 C 2.671875 -1.875 2.609375 -1.957031 2.515625 -2.0625 C 2.441406 -2.1875 2.378906 -2.28125 2.328125 -2.34375 L 1.6875 -1.796875 L 1.6875 -0.765625 C 1.6875 -0.546875 1.726562 -0.414062 1.8125 -0.375 C 1.894531 -0.332031 2.113281 -0.3125 2.46875 -0.3125 L 2.46875 0 C 2.070312 -0.0195312 1.707031 -0.03125 1.375 -0.03125 C 1.300781 -0.03125 0.9375 -0.0195312 0.28125 0 Z "/>
</g>
<g id="glyph-0-4">
</g>
<g id="glyph-0-5">
<path d="M 0.96875 -0.546875 C 0.550781 -0.984375 0.34375 -1.519531 0.34375 -2.15625 C 0.34375 -2.789062 0.550781 -3.335938 0.96875 -3.796875 C 1.382812 -4.253906 1.898438 -4.484375 2.515625 -4.484375 C 2.921875 -4.484375 3.273438 -4.382812 3.578125 -4.1875 C 3.890625 -4 4.046875 -3.738281 4.046875 -3.40625 C 4.046875 -3.257812 4 -3.144531 3.90625 -3.0625 C 3.820312 -2.976562 3.710938 -2.9375 3.578125 -2.9375 C 3.441406 -2.9375 3.332031 -2.976562 3.25 -3.0625 C 3.164062 -3.15625 3.125 -3.269531 3.125 -3.40625 C 3.125 -3.457031 3.132812 -3.507812 3.15625 -3.5625 C 3.175781 -3.625 3.222656 -3.6875 3.296875 -3.75 C 3.367188 -3.8125 3.46875 -3.847656 3.59375 -3.859375 C 3.351562 -4.109375 2.992188 -4.234375 2.515625 -4.234375 C 2.179688 -4.234375 1.875 -4.070312 1.59375 -3.75 C 1.3125 -3.425781 1.171875 -2.90625 1.171875 -2.1875 C 1.171875 -1.800781 1.21875 -1.46875 1.3125 -1.1875 C 1.40625 -0.90625 1.523438 -0.691406 1.671875 -0.546875 C 1.828125 -0.410156 1.976562 -0.304688 2.125 -0.234375 C 2.28125 -0.171875 2.429688 -0.140625 2.578125 -0.140625 C 3.234375 -0.140625 3.671875 -0.488281 3.890625 -1.1875 C 3.910156 -1.257812 3.953125 -1.296875 4.015625 -1.296875 C 4.109375 -1.296875 4.15625 -1.257812 4.15625 -1.1875 C 4.15625 -1.15625 4.140625 -1.097656 4.109375 -1.015625 C 4.078125 -0.929688 4.019531 -0.820312 3.9375 -0.6875 C 3.863281 -0.550781 3.769531 -0.425781 3.65625 -0.3125 C 3.539062 -0.195312 3.378906 -0.0976562 3.171875 -0.015625 C 2.972656 0.0664062 2.742188 0.109375 2.484375 0.109375 C 1.898438 0.109375 1.394531 -0.109375 0.96875 -0.546875 Z "/>
</g>
<g id="glyph-0-6">
<path d="M 0.9375 -0.53125 C 0.5 -0.96875 0.28125 -1.503906 0.28125 -2.140625 C 0.28125 -2.773438 0.492188 -3.320312 0.921875 -3.78125 C 1.347656 -4.25 1.875 -4.484375 2.5 -4.484375 C 3.101562 -4.484375 3.617188 -4.25 4.046875 -3.78125 C 4.484375 -3.320312 4.703125 -2.773438 4.703125 -2.140625 C 4.703125 -1.515625 4.484375 -0.984375 4.046875 -0.546875 C 3.617188 -0.109375 3.097656 0.109375 2.484375 0.109375 C 1.890625 0.109375 1.375 -0.101562 0.9375 -0.53125 Z M 1.109375 -2.21875 C 1.109375 -1.570312 1.191406 -1.101562 1.359375 -0.8125 C 1.617188 -0.363281 2 -0.140625 2.5 -0.140625 C 2.75 -0.140625 2.972656 -0.207031 3.171875 -0.34375 C 3.378906 -0.476562 3.539062 -0.65625 3.65625 -0.875 C 3.800781 -1.164062 3.875 -1.613281 3.875 -2.21875 C 3.875 -2.863281 3.789062 -3.328125 3.625 -3.609375 C 3.363281 -4.046875 2.984375 -4.265625 2.484375 -4.265625 C 2.273438 -4.265625 2.066406 -4.207031 1.859375 -4.09375 C 1.648438 -3.976562 1.476562 -3.8125 1.34375 -3.59375 C 1.1875 -3.300781 1.109375 -2.84375 1.109375 -2.21875 Z "/>
</g>
<g id="glyph-0-7">
<path d="M 0.1875 -4 L 0.1875 -4.21875 C 0.5 -4.226562 0.753906 -4.34375 0.953125 -4.5625 C 1.160156 -4.78125 1.296875 -5.019531 1.359375 -5.28125 C 1.429688 -5.550781 1.472656 -5.84375 1.484375 -6.15625 L 1.734375 -6.15625 L 1.734375 -4.3125 L 3.15625 -4.3125 L 3.15625 -4 L 1.734375 -4 L 1.734375 -1.21875 C 1.734375 -0.5 1.957031 -0.140625 2.40625 -0.140625 C 2.59375 -0.140625 2.75 -0.238281 2.875 -0.4375 C 3 -0.632812 3.0625 -0.910156 3.0625 -1.265625 L 3.0625 -1.8125 L 3.3125 -1.8125 L 3.3125 -1.234375 C 3.3125 -0.878906 3.226562 -0.566406 3.0625 -0.296875 C 2.894531 -0.0234375 2.648438 0.109375 2.328125 0.109375 C 2.210938 0.109375 2.09375 0.09375 1.96875 0.0625 C 1.851562 0.03125 1.71875 -0.0195312 1.5625 -0.09375 C 1.40625 -0.175781 1.28125 -0.316406 1.1875 -0.515625 C 1.09375 -0.710938 1.046875 -0.953125 1.046875 -1.234375 L 1.046875 -4 Z "/>
</g>
</g>
</defs>
<g fill="rgb(94.117647%, 67.45098%, 37.254902%)" fill-opacity="1">
<use xlink:href="#glyph-0-0" x="30" y="29.349609"/>
<use xlink:href="#glyph-0-1" x="34" y="29.349609"/>
<use xlink:href="#glyph-0-2" x="40" y="29.349609"/>
<use xlink:href="#glyph-0-3" x="46" y="29.349609"/>
<use xlink:href="#glyph-0-4" x="51" y="29.349609"/>
<use xlink:href="#glyph-0-5" x="54" y="29.349609"/>
<use xlink:href="#glyph-0-6" x="58" y="29.349609"/>
<use xlink:href="#glyph-0-0" x="63" y="29.349609"/>
<use xlink:href="#glyph-0-7" x="67" y="29.349609"/>
</g>
</svg>
